<svg width="650" height="251" viewBox="0 0 650 251" fill="none" xmlns="http://www.w3.org/2000/svg">
<g filter="url(#filter0_d_1_1200)">
<g clip-path="url(#clip0_1_1200)">
<rect x="26" y="10" width="598" height="199" rx="32" fill="url(#paint0_linear_1_1200)"/>
<g filter="url(#filter1_f_1_1200)">
<circle cx="40" cy="28" r="14" fill="white"/>
</g>
<g opacity="0.7" filter="url(#filter2_f_1_1200)">
<circle cx="194" cy="202" r="14" fill="white"/>
</g>
<g filter="url(#filter3_f_1_1200)">
<circle cx="574" cy="8" r="14" fill="white"/>
</g>
<path d="M180.26 57.012V52.56H188.016V73H183.032V57.012H180.26ZM191.291 62.5C191.291 59.2893 191.907 56.76 193.139 54.912C194.39 53.064 196.397 52.14 199.159 52.14C201.922 52.14 203.919 53.064 205.151 54.912C206.402 56.76 207.027 59.2893 207.027 62.5C207.027 65.748 206.402 68.296 205.151 70.144C203.919 71.992 201.922 72.916 199.159 72.916C196.397 72.916 194.39 71.992 193.139 70.144C191.907 68.296 191.291 65.748 191.291 62.5ZM202.323 62.5C202.323 60.6147 202.118 59.168 201.707 58.16C201.297 57.1333 200.447 56.62 199.159 56.62C197.871 56.62 197.022 57.1333 196.611 58.16C196.201 59.168 195.995 60.6147 195.995 62.5C195.995 63.7693 196.07 64.824 196.219 65.664C196.369 66.4853 196.667 67.1573 197.115 67.68C197.582 68.184 198.263 68.436 199.159 68.436C200.055 68.436 200.727 68.184 201.175 67.68C201.642 67.1573 201.95 66.4853 202.099 65.664C202.249 64.824 202.323 63.7693 202.323 62.5ZM209.557 62.5C209.557 59.2893 210.173 56.76 211.405 54.912C212.656 53.064 214.662 52.14 217.425 52.14C220.188 52.14 222.185 53.064 223.417 54.912C224.668 56.76 225.293 59.2893 225.293 62.5C225.293 65.748 224.668 68.296 223.417 70.144C222.185 71.992 220.188 72.916 217.425 72.916C214.662 72.916 212.656 71.992 211.405 70.144C210.173 68.296 209.557 65.748 209.557 62.5ZM220.589 62.5C220.589 60.6147 220.384 59.168 219.973 58.16C219.562 57.1333 218.713 56.62 217.425 56.62C216.137 56.62 215.288 57.1333 214.877 58.16C214.466 59.168 214.261 60.6147 214.261 62.5C214.261 63.7693 214.336 64.824 214.485 65.664C214.634 66.4853 214.933 67.1573 215.381 67.68C215.848 68.184 216.529 68.436 217.425 68.436C218.321 68.436 218.993 68.184 219.441 67.68C219.908 67.1573 220.216 66.4853 220.365 65.664C220.514 64.824 220.589 63.7693 220.589 62.5ZM227.431 57.712C227.431 56.2 227.86 55.0333 228.719 54.212C229.596 53.3907 230.725 52.98 232.107 52.98C233.488 52.98 234.608 53.3907 235.467 54.212C236.325 55.0333 236.755 56.2 236.755 57.712C236.755 59.224 236.325 60.3907 235.467 61.212C234.608 62.0333 233.488 62.444 232.107 62.444C230.725 62.444 229.596 62.0333 228.719 61.212C227.86 60.3907 227.431 59.224 227.431 57.712ZM246.443 53.288L235.663 73H231.043L241.823 53.288H246.443ZM232.079 55.78C231.183 55.78 230.735 56.424 230.735 57.712C230.735 58.9813 231.183 59.616 232.079 59.616C232.508 59.616 232.844 59.4573 233.087 59.14C233.329 58.8227 233.451 58.3467 233.451 57.712C233.451 56.424 232.993 55.78 232.079 55.78ZM240.759 68.576C240.759 67.064 241.188 65.8973 242.047 65.076C242.905 64.2547 244.025 63.844 245.407 63.844C246.788 63.844 247.908 64.2547 248.767 65.076C249.625 65.8973 250.055 67.064 250.055 68.576C250.055 70.088 249.625 71.2547 248.767 72.076C247.908 72.8973 246.788 73.308 245.407 73.308C244.025 73.308 242.905 72.8973 242.047 72.076C241.188 71.2547 240.759 70.088 240.759 68.576ZM245.379 66.644C244.949 66.644 244.613 66.8027 244.371 67.12C244.147 67.4373 244.035 67.9227 244.035 68.576C244.035 69.8453 244.483 70.48 245.379 70.48C245.808 70.48 246.144 70.3213 246.387 70.004C246.629 69.6867 246.751 69.2107 246.751 68.576C246.751 67.9413 246.629 67.4653 246.387 67.148C246.144 66.812 245.808 66.644 245.379 66.644ZM268.619 73L264.531 65.58H263.383V73H258.595V53.344H266.631C268.181 53.344 269.497 53.6147 270.579 54.156C271.681 54.6973 272.502 55.444 273.043 56.396C273.585 57.3293 273.855 58.3747 273.855 59.532C273.855 60.8387 273.482 62.0053 272.735 63.032C272.007 64.0587 270.925 64.7867 269.487 65.216L274.023 73H268.619ZM263.383 62.192H266.351C267.229 62.192 267.882 61.9773 268.311 61.548C268.759 61.1187 268.983 60.512 268.983 59.728C268.983 58.9813 268.759 58.3933 268.311 57.964C267.882 57.5347 267.229 57.32 266.351 57.32H263.383V62.192ZM291.589 64.936C291.589 65.384 291.561 65.8507 291.505 66.336H280.669C280.744 67.3067 281.052 68.0533 281.593 68.576C282.153 69.08 282.834 69.332 283.637 69.332C284.832 69.332 285.662 68.828 286.129 67.82H291.225C290.964 68.8467 290.488 69.7707 289.797 70.592C289.125 71.4133 288.276 72.0573 287.249 72.524C286.222 72.9907 285.074 73.224 283.805 73.224C282.274 73.224 280.912 72.8973 279.717 72.244C278.522 71.5907 277.589 70.6573 276.917 69.444C276.245 68.2307 275.909 66.812 275.909 65.188C275.909 63.564 276.236 62.1453 276.889 60.932C277.561 59.7187 278.494 58.7853 279.689 58.132C280.884 57.4787 282.256 57.152 283.805 57.152C285.317 57.152 286.661 57.4693 287.837 58.104C289.013 58.7387 289.928 59.644 290.581 60.82C291.253 61.996 291.589 63.368 291.589 64.936ZM286.689 63.676C286.689 62.8547 286.409 62.2013 285.849 61.716C285.289 61.2307 284.589 60.988 283.749 60.988C282.946 60.988 282.265 61.2213 281.705 61.688C281.164 62.1547 280.828 62.8173 280.697 63.676H286.689ZM301.955 61.352H299.379V73H294.591V61.352H292.855V57.376H294.591V56.928C294.591 55.0053 295.142 53.5493 296.243 52.56C297.344 51.552 298.959 51.048 301.087 51.048C301.442 51.048 301.703 51.0573 301.871 51.076V55.136C300.956 55.08 300.312 55.2107 299.939 55.528C299.566 55.8453 299.379 56.4147 299.379 57.236V57.376H301.955V61.352ZM319.633 57.376V73H314.845V70.872C314.359 71.5627 313.697 72.1227 312.857 72.552C312.035 72.9627 311.121 73.168 310.113 73.168C308.918 73.168 307.863 72.9067 306.949 72.384C306.034 71.8427 305.325 71.068 304.821 70.06C304.317 69.052 304.065 67.8667 304.065 66.504V57.376H308.825V65.86C308.825 66.9053 309.095 67.7173 309.637 68.296C310.178 68.8747 310.906 69.164 311.821 69.164C312.754 69.164 313.491 68.8747 314.033 68.296C314.574 67.7173 314.845 66.9053 314.845 65.86V57.376H319.633ZM332.592 57.208C334.421 57.208 335.877 57.8053 336.96 59C338.061 60.176 338.612 61.8 338.612 63.872V73H333.852V64.516C333.852 63.4707 333.581 62.6587 333.04 62.08C332.499 61.5013 331.771 61.212 330.856 61.212C329.941 61.212 329.213 61.5013 328.672 62.08C328.131 62.6587 327.86 63.4707 327.86 64.516V73H323.072V57.376H327.86V59.448C328.345 58.7573 328.999 58.216 329.82 57.824C330.641 57.4133 331.565 57.208 332.592 57.208ZM340.987 65.16C340.987 63.5547 341.286 62.1453 341.883 60.932C342.499 59.7187 343.33 58.7853 344.375 58.132C345.42 57.4787 346.587 57.152 347.875 57.152C348.902 57.152 349.835 57.3667 350.675 57.796C351.534 58.2253 352.206 58.804 352.691 59.532V52.28H357.479V73H352.691V70.76C352.243 71.5067 351.599 72.104 350.759 72.552C349.938 73 348.976 73.224 347.875 73.224C346.587 73.224 345.42 72.8973 344.375 72.244C343.33 71.572 342.499 70.6293 341.883 69.416C341.286 68.184 340.987 66.7653 340.987 65.16ZM352.691 65.188C352.691 63.9933 352.355 63.0507 351.683 62.36C351.03 61.6693 350.227 61.324 349.275 61.324C348.323 61.324 347.511 61.6693 346.839 62.36C346.186 63.032 345.859 63.9653 345.859 65.16C345.859 66.3547 346.186 67.3067 346.839 68.016C347.511 68.7067 348.323 69.052 349.275 69.052C350.227 69.052 351.03 68.7067 351.683 68.016C352.355 67.3253 352.691 66.3827 352.691 65.188ZM376.173 73.196C374.325 73.196 372.626 72.7667 371.077 71.908C369.546 71.0493 368.323 69.8547 367.409 68.324C366.513 66.7747 366.065 65.0387 366.065 63.116C366.065 61.1933 366.513 59.4667 367.409 57.936C368.323 56.4053 369.546 55.2107 371.077 54.352C372.626 53.4933 374.325 53.064 376.173 53.064C378.021 53.064 379.71 53.4933 381.241 54.352C382.79 55.2107 384.003 56.4053 384.881 57.936C385.777 59.4667 386.225 61.1933 386.225 63.116C386.225 65.0387 385.777 66.7747 384.881 68.324C383.985 69.8547 382.771 71.0493 381.241 71.908C379.71 72.7667 378.021 73.196 376.173 73.196ZM376.173 68.828C377.741 68.828 378.991 68.3053 379.925 67.26C380.877 66.2147 381.353 64.8333 381.353 63.116C381.353 61.38 380.877 59.9987 379.925 58.972C378.991 57.9267 377.741 57.404 376.173 57.404C374.586 57.404 373.317 57.9173 372.365 58.944C371.431 59.9707 370.965 61.3613 370.965 63.116C370.965 64.852 371.431 66.2427 372.365 67.288C373.317 68.3147 374.586 68.828 376.173 68.828ZM396.728 61.352H394.152V73H389.364V61.352H387.628V57.376H389.364V56.928C389.364 55.0053 389.915 53.5493 391.016 52.56C392.118 51.552 393.732 51.048 395.86 51.048C396.215 51.048 396.476 51.0573 396.644 51.076V55.136C395.73 55.08 395.086 55.2107 394.712 55.528C394.339 55.8453 394.152 56.4147 394.152 57.236V57.376H396.728V61.352ZM406.818 61.352H404.242V73H399.454V61.352H397.718V57.376H399.454V56.928C399.454 55.0053 400.005 53.5493 401.106 52.56C402.208 51.552 403.822 51.048 405.95 51.048C406.305 51.048 406.566 51.0573 406.734 51.076V55.136C405.82 55.08 405.176 55.2107 404.802 55.528C404.429 55.8453 404.242 56.4147 404.242 57.236V57.376H406.818V61.352ZM423.796 64.936C423.796 65.384 423.768 65.8507 423.712 66.336H412.876C412.951 67.3067 413.259 68.0533 413.8 68.576C414.36 69.08 415.041 69.332 415.844 69.332C417.039 69.332 417.869 68.828 418.336 67.82H423.432C423.171 68.8467 422.695 69.7707 422.004 70.592C421.332 71.4133 420.483 72.0573 419.456 72.524C418.429 72.9907 417.281 73.224 416.012 73.224C414.481 73.224 413.119 72.8973 411.924 72.244C410.729 71.5907 409.796 70.6573 409.124 69.444C408.452 68.2307 408.116 66.812 408.116 65.188C408.116 63.564 408.443 62.1453 409.096 60.932C409.768 59.7187 410.701 58.7853 411.896 58.132C413.091 57.4787 414.463 57.152 416.012 57.152C417.524 57.152 418.868 57.4693 420.044 58.104C421.22 58.7387 422.135 59.644 422.788 60.82C423.46 61.996 423.796 63.368 423.796 64.936ZM418.896 63.676C418.896 62.8547 418.616 62.2013 418.056 61.716C417.496 61.2307 416.796 60.988 415.956 60.988C415.153 60.988 414.472 61.2213 413.912 61.688C413.371 62.1547 413.035 62.8173 412.904 63.676H418.896ZM431.11 59.98C431.67 59.1213 432.37 58.4493 433.21 57.964C434.05 57.46 434.983 57.208 436.01 57.208V62.276H434.694C433.499 62.276 432.603 62.5373 432.006 63.06C431.409 63.564 431.11 64.46 431.11 65.748V73H426.322V57.376H431.11V59.98ZM442.496 74.96H470.496V46.96H442.496V74.96Z" fill="white"/>
<path d="M48.214 106.21C49.366 105.214 50.272 104.398 50.932 103.762C51.604 103.114 52.162 102.442 52.606 101.746C53.05 101.05 53.272 100.354 53.272 99.658C53.272 98.938 53.098 98.374 52.75 97.966C52.414 97.558 51.88 97.354 51.148 97.354C50.44 97.354 49.888 97.582 49.492 98.038C49.108 98.482 48.904 99.082 48.88 99.838H46.9C46.936 98.47 47.344 97.426 48.124 96.706C48.916 95.974 49.918 95.608 51.13 95.608C52.438 95.608 53.458 95.968 54.19 96.688C54.934 97.408 55.306 98.368 55.306 99.568C55.306 100.432 55.084 101.266 54.64 102.07C54.208 102.862 53.686 103.576 53.074 104.212C52.474 104.836 51.706 105.562 50.77 106.39L49.96 107.11H55.666V108.82H46.918V107.326L48.214 106.21ZM57.4687 102.268C57.4687 100.192 57.8167 98.572 58.5127 97.408C59.2207 96.232 60.4327 95.644 62.1487 95.644C63.8647 95.644 65.0707 96.232 65.7667 97.408C66.4747 98.572 66.8287 100.192 66.8287 102.268C66.8287 104.368 66.4747 106.012 65.7667 107.2C65.0707 108.376 63.8647 108.964 62.1487 108.964C60.4327 108.964 59.2207 108.376 58.5127 107.2C57.8167 106.012 57.4687 104.368 57.4687 102.268ZM64.8127 102.268C64.8127 101.296 64.7467 100.474 64.6147 99.802C64.4947 99.13 64.2427 98.584 63.8587 98.164C63.4747 97.732 62.9047 97.516 62.1487 97.516C61.3927 97.516 60.8227 97.732 60.4387 98.164C60.0547 98.584 59.7967 99.13 59.6647 99.802C59.5447 100.474 59.4847 101.296 59.4847 102.268C59.4847 103.276 59.5447 104.122 59.6647 104.806C59.7847 105.49 60.0367 106.042 60.4207 106.462C60.8167 106.882 61.3927 107.092 62.1487 107.092C62.9047 107.092 63.4747 106.882 63.8587 106.462C64.2547 106.042 64.5127 105.49 64.6327 104.806C64.7527 104.122 64.8127 103.276 64.8127 102.268ZM78.0677 109.126C77.2277 109.126 76.4717 108.982 75.7997 108.694C75.1277 108.394 74.5997 107.974 74.2157 107.434C73.8317 106.894 73.6397 106.264 73.6397 105.544H75.8357C75.8837 106.084 76.0937 106.528 76.4657 106.876C76.8497 107.224 77.3837 107.398 78.0677 107.398C78.7757 107.398 79.3277 107.23 79.7237 106.894C80.1197 106.546 80.3177 106.102 80.3177 105.562C80.3177 105.142 80.1917 104.8 79.9397 104.536C79.6997 104.272 79.3937 104.068 79.0217 103.924C78.6617 103.78 78.1577 103.624 77.5097 103.456C76.6937 103.24 76.0277 103.024 75.5117 102.808C75.0077 102.58 74.5757 102.232 74.2157 101.764C73.8557 101.296 73.6757 100.672 73.6757 99.892C73.6757 99.172 73.8557 98.542 74.2157 98.002C74.5757 97.462 75.0797 97.048 75.7277 96.76C76.3757 96.472 77.1257 96.328 77.9777 96.328C79.1897 96.328 80.1797 96.634 80.9477 97.246C81.7277 97.846 82.1597 98.674 82.2437 99.73H79.9757C79.9397 99.274 79.7237 98.884 79.3277 98.56C78.9317 98.236 78.4097 98.074 77.7617 98.074C77.1737 98.074 76.6937 98.224 76.3217 98.524C75.9497 98.824 75.7637 99.256 75.7637 99.82C75.7637 100.204 75.8777 100.522 76.1057 100.774C76.3457 101.014 76.6457 101.206 77.0057 101.35C77.3657 101.494 77.8577 101.65 78.4817 101.818C79.3097 102.046 79.9817 102.274 80.4977 102.502C81.0257 102.73 81.4697 103.084 81.8297 103.564C82.2017 104.032 82.3877 104.662 82.3877 105.454C82.3877 106.09 82.2137 106.69 81.8657 107.254C81.5297 107.818 81.0317 108.274 80.3717 108.622C79.7237 108.958 78.9557 109.126 78.0677 109.126ZM93.899 103.798C93.899 104.17 93.875 104.506 93.827 104.806H86.249C86.309 105.598 86.603 106.234 87.131 106.714C87.659 107.194 88.307 107.434 89.075 107.434C90.179 107.434 90.959 106.972 91.415 106.048H93.629C93.329 106.96 92.783 107.71 91.991 108.298C91.211 108.874 90.239 109.162 89.075 109.162C88.127 109.162 87.275 108.952 86.519 108.532C85.775 108.1 85.187 107.5 84.755 106.732C84.335 105.952 84.125 105.052 84.125 104.032C84.125 103.012 84.329 102.118 84.737 101.35C85.157 100.57 85.739 99.97 86.483 99.55C87.239 99.13 88.103 98.92 89.075 98.92C90.011 98.92 90.845 99.124 91.577 99.532C92.309 99.94 92.879 100.516 93.287 101.26C93.695 101.992 93.899 102.838 93.899 103.798ZM91.757 103.15C91.745 102.394 91.475 101.788 90.947 101.332C90.419 100.876 89.765 100.648 88.985 100.648C88.277 100.648 87.671 100.876 87.167 101.332C86.663 101.776 86.363 102.382 86.267 103.15H91.757ZM95.2344 103.996C95.2344 103 95.4384 102.118 95.8464 101.35C96.2664 100.582 96.8304 99.988 97.5384 99.568C98.2584 99.136 99.0504 98.92 99.9144 98.92C100.694 98.92 101.372 99.076 101.948 99.388C102.536 99.688 103.004 100.066 103.352 100.522V99.082H105.422V109H103.352V107.524C103.004 107.992 102.53 108.382 101.93 108.694C101.33 109.006 100.646 109.162 99.8784 109.162C99.0264 109.162 98.2464 108.946 97.5384 108.514C96.8304 108.07 96.2664 107.458 95.8464 106.678C95.4384 105.886 95.2344 104.992 95.2344 103.996ZM103.352 104.032C103.352 103.348 103.208 102.754 102.92 102.25C102.644 101.746 102.278 101.362 101.822 101.098C101.366 100.834 100.874 100.702 100.346 100.702C99.8184 100.702 99.3264 100.834 98.8704 101.098C98.4144 101.35 98.0424 101.728 97.7544 102.232C97.4784 102.724 97.3404 103.312 97.3404 103.996C97.3404 104.68 97.4784 105.28 97.7544 105.796C98.0424 106.312 98.4144 106.708 98.8704 106.984C99.3384 107.248 99.8304 107.38 100.346 107.38C100.874 107.38 101.366 107.248 101.822 106.984C102.278 106.72 102.644 106.336 102.92 105.832C103.208 105.316 103.352 104.716 103.352 104.032ZM110.512 100.756V106.246C110.512 106.618 110.596 106.888 110.764 107.056C110.944 107.212 111.244 107.29 111.664 107.29H112.924V109H111.304C110.38 109 109.672 108.784 109.18 108.352C108.688 107.92 108.442 107.218 108.442 106.246V100.756H107.272V99.082H108.442V96.616H110.512V99.082H112.924V100.756H110.512ZM118.415 109.162C117.635 109.162 116.933 109.024 116.309 108.748C115.697 108.46 115.211 108.076 114.851 107.596C114.491 107.104 114.299 106.558 114.275 105.958H116.399C116.435 106.378 116.633 106.732 116.993 107.02C117.365 107.296 117.827 107.434 118.379 107.434C118.955 107.434 119.399 107.326 119.711 107.11C120.035 106.882 120.197 106.594 120.197 106.246C120.197 105.874 120.017 105.598 119.657 105.418C119.309 105.238 118.751 105.04 117.983 104.824C117.239 104.62 116.633 104.422 116.165 104.23C115.697 104.038 115.289 103.744 114.941 103.348C114.605 102.952 114.437 102.43 114.437 101.782C114.437 101.254 114.593 100.774 114.905 100.342C115.217 99.898 115.661 99.55 116.237 99.298C116.825 99.046 117.497 98.92 118.253 98.92C119.381 98.92 120.287 99.208 120.971 99.784C121.667 100.348 122.039 101.122 122.087 102.106H120.035C119.999 101.662 119.819 101.308 119.495 101.044C119.171 100.78 118.733 100.648 118.181 100.648C117.641 100.648 117.227 100.75 116.939 100.954C116.651 101.158 116.507 101.428 116.507 101.764C116.507 102.028 116.603 102.25 116.795 102.43C116.987 102.61 117.221 102.754 117.497 102.862C117.773 102.958 118.181 103.084 118.721 103.24C119.441 103.432 120.029 103.63 120.485 103.834C120.953 104.026 121.355 104.314 121.691 104.698C122.027 105.082 122.201 105.592 122.213 106.228C122.213 106.792 122.057 107.296 121.745 107.74C121.433 108.184 120.989 108.532 120.413 108.784C119.849 109.036 119.183 109.162 118.415 109.162ZM131.158 107.344H135.388V109H129.106V96.49H131.158V107.344ZM146.194 103.798C146.194 104.17 146.17 104.506 146.122 104.806H138.544C138.604 105.598 138.898 106.234 139.426 106.714C139.954 107.194 140.602 107.434 141.37 107.434C142.474 107.434 143.254 106.972 143.71 106.048H145.924C145.624 106.96 145.078 107.71 144.286 108.298C143.506 108.874 142.534 109.162 141.37 109.162C140.422 109.162 139.57 108.952 138.814 108.532C138.07 108.1 137.482 107.5 137.05 106.732C136.63 105.952 136.42 105.052 136.42 104.032C136.42 103.012 136.624 102.118 137.032 101.35C137.452 100.57 138.034 99.97 138.778 99.55C139.534 99.13 140.398 98.92 141.37 98.92C142.306 98.92 143.14 99.124 143.872 99.532C144.604 99.94 145.174 100.516 145.582 101.26C145.99 101.992 146.194 102.838 146.194 103.798ZM144.052 103.15C144.04 102.394 143.77 101.788 143.242 101.332C142.714 100.876 142.06 100.648 141.28 100.648C140.572 100.648 139.966 100.876 139.462 101.332C138.958 101.776 138.658 102.382 138.562 103.15H144.052ZM152.371 100.756H150.535V109H148.465V100.756H147.295V99.082H148.465V98.38C148.465 97.24 148.765 96.412 149.365 95.896C149.977 95.368 150.931 95.104 152.227 95.104V96.814C151.603 96.814 151.165 96.934 150.913 97.174C150.661 97.402 150.535 97.804 150.535 98.38V99.082H152.371V100.756ZM156.584 100.756V106.246C156.584 106.618 156.668 106.888 156.836 107.056C157.016 107.212 157.316 107.29 157.736 107.29H158.996V109H157.376C156.452 109 155.744 108.784 155.252 108.352C154.76 107.92 154.514 107.218 154.514 106.246V100.756H153.344V99.082H154.514V96.616H156.584V99.082H158.996V100.756H156.584Z" fill="white" fill-opacity="0.7"/>
<rect x="46" y="123" width="558" height="10" rx="5" fill="white" fill-opacity="0.15"/>
<g filter="url(#filter4_i_1_1200)">
<rect x="46" y="123" width="159" height="10" rx="5" fill="#FFC41B"/>
</g>
<circle cx="205" cy="128" r="9.5" fill="#FFC41B" stroke="white" stroke-width="3"/>
<path d="M208 150.333C201.567 150.333 196.333 155.567 196.333 162C196.333 168.433 201.567 173.667 208 173.667C214.433 173.667 219.667 168.433 219.667 162C219.667 155.567 214.433 150.333 208 150.333ZM208 171.333C202.854 171.333 198.667 167.146 198.667 162C198.667 156.854 202.854 152.667 208 152.667C213.146 152.667 217.333 156.854 217.333 162C217.333 167.146 213.146 171.333 208 171.333Z" fill="white"/>
<path d="M209.167 156.167H206.833V162.483L210.675 166.325L212.325 164.675L209.167 161.517V156.167Z" fill="white"/>
<path d="M234.182 169.14C232.888 169.14 231.695 168.84 230.602 168.24C229.522 167.627 228.662 166.78 228.022 165.7C227.395 164.607 227.082 163.38 227.082 162.02C227.082 160.66 227.395 159.44 228.022 158.36C228.662 157.28 229.522 156.44 230.602 155.84C231.695 155.227 232.888 154.92 234.182 154.92C235.488 154.92 236.682 155.227 237.762 155.84C238.855 156.44 239.715 157.28 240.342 158.36C240.968 159.44 241.282 160.66 241.282 162.02C241.282 163.38 240.968 164.607 240.342 165.7C239.715 166.78 238.855 167.627 237.762 168.24C236.682 168.84 235.488 169.14 234.182 169.14ZM234.182 167.16C235.102 167.16 235.922 166.953 236.642 166.54C237.362 166.113 237.922 165.513 238.322 164.74C238.735 163.953 238.942 163.047 238.942 162.02C238.942 160.993 238.735 160.093 238.322 159.32C237.922 158.547 237.362 157.953 236.642 157.54C235.922 157.127 235.102 156.92 234.182 156.92C233.262 156.92 232.442 157.127 231.722 157.54C231.002 157.953 230.435 158.547 230.022 159.32C229.622 160.093 229.422 160.993 229.422 162.02C229.422 163.047 229.622 163.953 230.022 164.74C230.435 165.513 231.002 166.113 231.722 166.54C232.442 166.953 233.262 167.16 234.182 167.16ZM248.145 159.84H246.105V169H243.805V159.84H242.505V157.98H243.805V157.2C243.805 155.933 244.139 155.013 244.805 154.44C245.485 153.853 246.545 153.56 247.985 153.56V155.46C247.292 155.46 246.805 155.593 246.525 155.86C246.245 156.113 246.105 156.56 246.105 157.2V157.98H248.145V159.84ZM254.786 159.84H252.746V169H250.446V159.84H249.146V157.98H250.446V157.2C250.446 155.933 250.779 155.013 251.446 154.44C252.126 153.853 253.186 153.56 254.626 153.56V155.46C253.933 155.46 253.446 155.593 253.166 155.86C252.886 156.113 252.746 156.56 252.746 157.2V157.98H254.786V159.84ZM266.907 163.22C266.907 163.633 266.88 164.007 266.827 164.34H258.407C258.473 165.22 258.8 165.927 259.387 166.46C259.973 166.993 260.693 167.26 261.547 167.26C262.773 167.26 263.64 166.747 264.147 165.72H266.607C266.273 166.733 265.667 167.567 264.787 168.22C263.92 168.86 262.84 169.18 261.547 169.18C260.493 169.18 259.547 168.947 258.707 168.48C257.88 168 257.227 167.333 256.747 166.48C256.28 165.613 256.047 164.613 256.047 163.48C256.047 162.347 256.273 161.353 256.727 160.5C257.193 159.633 257.84 158.967 258.667 158.5C259.507 158.033 260.467 157.8 261.547 157.8C262.587 157.8 263.513 158.027 264.327 158.48C265.14 158.933 265.773 159.573 266.227 160.4C266.68 161.213 266.907 162.153 266.907 163.22ZM264.527 162.5C264.513 161.66 264.213 160.987 263.627 160.48C263.04 159.973 262.313 159.72 261.447 159.72C260.66 159.72 259.987 159.973 259.427 160.48C258.867 160.973 258.533 161.647 258.427 162.5H264.527ZM271.43 159.58C271.764 159.02 272.204 158.587 272.75 158.28C273.31 157.96 273.97 157.8 274.73 157.8V160.16H274.15C273.257 160.16 272.577 160.387 272.11 160.84C271.657 161.293 271.43 162.08 271.43 163.2V169H269.15V157.98H271.43V159.58ZM292.121 163.22C292.121 163.633 292.095 164.007 292.041 164.34H283.621C283.688 165.22 284.015 165.927 284.601 166.46C285.188 166.993 285.908 167.26 286.761 167.26C287.988 167.26 288.855 166.747 289.361 165.72H291.821C291.488 166.733 290.881 167.567 290.001 168.22C289.135 168.86 288.055 169.18 286.761 169.18C285.708 169.18 284.761 168.947 283.921 168.48C283.095 168 282.441 167.333 281.961 166.48C281.495 165.613 281.261 164.613 281.261 163.48C281.261 162.347 281.488 161.353 281.941 160.5C282.408 159.633 283.055 158.967 283.881 158.5C284.721 158.033 285.681 157.8 286.761 157.8C287.801 157.8 288.728 158.027 289.541 158.48C290.355 158.933 290.988 159.573 291.441 160.4C291.895 161.213 292.121 162.153 292.121 163.22ZM289.741 162.5C289.728 161.66 289.428 160.987 288.841 160.48C288.255 159.973 287.528 159.72 286.661 159.72C285.875 159.72 285.201 159.973 284.641 160.48C284.081 160.973 283.748 161.647 283.641 162.5H289.741ZM299.925 157.8C300.792 157.8 301.565 157.98 302.245 158.34C302.939 158.7 303.479 159.233 303.865 159.94C304.252 160.647 304.445 161.5 304.445 162.5V169H302.185V162.84C302.185 161.853 301.939 161.1 301.445 160.58C300.952 160.047 300.279 159.78 299.425 159.78C298.572 159.78 297.892 160.047 297.385 160.58C296.892 161.1 296.645 161.853 296.645 162.84V169H294.365V157.98H296.645V159.24C297.019 158.787 297.492 158.433 298.065 158.18C298.652 157.927 299.272 157.8 299.925 157.8ZM306.594 163.44C306.594 162.333 306.82 161.353 307.274 160.5C307.74 159.647 308.367 158.987 309.154 158.52C309.954 158.04 310.84 157.8 311.814 157.8C312.534 157.8 313.24 157.96 313.934 158.28C314.64 158.587 315.2 159 315.614 159.52V154.2H317.914V169H315.614V167.34C315.24 167.873 314.72 168.313 314.054 168.66C313.4 169.007 312.647 169.18 311.794 169.18C310.834 169.18 309.954 168.94 309.154 168.46C308.367 167.967 307.74 167.287 307.274 166.42C306.82 165.54 306.594 164.547 306.594 163.44ZM315.614 163.48C315.614 162.72 315.454 162.06 315.134 161.5C314.827 160.94 314.42 160.513 313.914 160.22C313.407 159.927 312.86 159.78 312.274 159.78C311.687 159.78 311.14 159.927 310.634 160.22C310.127 160.5 309.714 160.92 309.394 161.48C309.087 162.027 308.934 162.68 308.934 163.44C308.934 164.2 309.087 164.867 309.394 165.44C309.714 166.013 310.127 166.453 310.634 166.76C311.154 167.053 311.7 167.2 312.274 167.2C312.86 167.2 313.407 167.053 313.914 166.76C314.42 166.467 314.827 166.04 315.134 165.48C315.454 164.907 315.614 164.24 315.614 163.48ZM324.908 169.18C324.042 169.18 323.262 169.027 322.568 168.72C321.888 168.4 321.348 167.973 320.948 167.44C320.548 166.893 320.335 166.287 320.308 165.62H322.668C322.708 166.087 322.928 166.48 323.328 166.8C323.742 167.107 324.255 167.26 324.868 167.26C325.508 167.26 326.002 167.14 326.348 166.9C326.708 166.647 326.888 166.327 326.888 165.94C326.888 165.527 326.688 165.22 326.288 165.02C325.902 164.82 325.282 164.6 324.428 164.36C323.602 164.133 322.928 163.913 322.408 163.7C321.888 163.487 321.435 163.16 321.048 162.72C320.675 162.28 320.488 161.7 320.488 160.98C320.488 160.393 320.662 159.86 321.008 159.38C321.355 158.887 321.848 158.5 322.488 158.22C323.142 157.94 323.888 157.8 324.728 157.8C325.982 157.8 326.988 158.12 327.748 158.76C328.522 159.387 328.935 160.247 328.988 161.34H326.708C326.668 160.847 326.468 160.453 326.108 160.16C325.748 159.867 325.262 159.72 324.648 159.72C324.048 159.72 323.588 159.833 323.268 160.06C322.948 160.287 322.788 160.587 322.788 160.96C322.788 161.253 322.895 161.5 323.108 161.7C323.322 161.9 323.582 162.06 323.888 162.18C324.195 162.287 324.648 162.427 325.248 162.6C326.048 162.813 326.702 163.033 327.208 163.26C327.728 163.473 328.175 163.793 328.548 164.22C328.922 164.647 329.115 165.213 329.128 165.92C329.128 166.547 328.955 167.107 328.608 167.6C328.262 168.093 327.768 168.48 327.128 168.76C326.502 169.04 325.762 169.18 324.908 169.18ZM337.947 156.52C337.534 156.52 337.187 156.38 336.907 156.1C336.627 155.82 336.487 155.473 336.487 155.06C336.487 154.647 336.627 154.3 336.907 154.02C337.187 153.74 337.534 153.6 337.947 153.6C338.347 153.6 338.687 153.74 338.967 154.02C339.247 154.3 339.387 154.647 339.387 155.06C339.387 155.473 339.247 155.82 338.967 156.1C338.687 156.38 338.347 156.52 337.947 156.52ZM339.067 157.98V169H336.787V157.98H339.067ZM347.621 157.8C348.487 157.8 349.261 157.98 349.941 158.34C350.634 158.7 351.174 159.233 351.561 159.94C351.947 160.647 352.141 161.5 352.141 162.5V169H349.881V162.84C349.881 161.853 349.634 161.1 349.141 160.58C348.647 160.047 347.974 159.78 347.121 159.78C346.267 159.78 345.587 160.047 345.081 160.58C344.587 161.1 344.341 161.853 344.341 162.84V169H342.061V157.98H344.341V159.24C344.714 158.787 345.187 158.433 345.761 158.18C346.347 157.927 346.967 157.8 347.621 157.8ZM359.644 156.5V154.42H363.804V169H361.504V156.5H359.644ZM366.936 161.52C366.936 159.213 367.323 157.413 368.096 156.12C368.883 154.813 370.23 154.16 372.136 154.16C374.043 154.16 375.383 154.813 376.156 156.12C376.943 157.413 377.336 159.213 377.336 161.52C377.336 163.853 376.943 165.68 376.156 167C375.383 168.307 374.043 168.96 372.136 168.96C370.23 168.96 368.883 168.307 368.096 167C367.323 165.68 366.936 163.853 366.936 161.52ZM375.096 161.52C375.096 160.44 375.023 159.527 374.876 158.78C374.743 158.033 374.463 157.427 374.036 156.96C373.61 156.48 372.976 156.24 372.136 156.24C371.296 156.24 370.663 156.48 370.236 156.96C369.81 157.427 369.523 158.033 369.376 158.78C369.243 159.527 369.176 160.44 369.176 161.52C369.176 162.64 369.243 163.58 369.376 164.34C369.51 165.1 369.79 165.713 370.216 166.18C370.656 166.647 371.296 166.88 372.136 166.88C372.976 166.88 373.61 166.647 374.036 166.18C374.476 165.713 374.763 165.1 374.896 164.34C375.03 163.58 375.096 162.64 375.096 161.52ZM380.969 169.14C380.555 169.14 380.209 169 379.929 168.72C379.649 168.44 379.509 168.093 379.509 167.68C379.509 167.267 379.649 166.92 379.929 166.64C380.209 166.36 380.555 166.22 380.969 166.22C381.369 166.22 381.709 166.36 381.989 166.64C382.269 166.92 382.409 167.267 382.409 167.68C382.409 168.093 382.269 168.44 381.989 168.72C381.709 169 381.369 169.14 380.969 169.14ZM380.969 160.74C380.555 160.74 380.209 160.6 379.929 160.32C379.649 160.04 379.509 159.693 379.509 159.28C379.509 158.867 379.649 158.52 379.929 158.24C380.209 157.96 380.555 157.82 380.969 157.82C381.369 157.82 381.709 157.96 381.989 158.24C382.269 158.52 382.409 158.867 382.409 159.28C382.409 159.693 382.269 160.04 381.989 160.32C381.709 160.6 381.369 160.74 380.969 160.74ZM384.651 161.52C384.651 159.213 385.038 157.413 385.811 156.12C386.598 154.813 387.945 154.16 389.851 154.16C391.758 154.16 393.098 154.813 393.871 156.12C394.658 157.413 395.051 159.213 395.051 161.52C395.051 163.853 394.658 165.68 393.871 167C393.098 168.307 391.758 168.96 389.851 168.96C387.945 168.96 386.598 168.307 385.811 167C385.038 165.68 384.651 163.853 384.651 161.52ZM392.811 161.52C392.811 160.44 392.738 159.527 392.591 158.78C392.458 158.033 392.178 157.427 391.751 156.96C391.325 156.48 390.691 156.24 389.851 156.24C389.011 156.24 388.378 156.48 387.951 156.96C387.525 157.427 387.238 158.033 387.091 158.78C386.958 159.527 386.891 160.44 386.891 161.52C386.891 162.64 386.958 163.58 387.091 164.34C387.225 165.1 387.505 165.713 387.931 166.18C388.371 166.647 389.011 166.88 389.851 166.88C390.691 166.88 391.325 166.647 391.751 166.18C392.191 165.713 392.478 165.1 392.611 164.34C392.745 163.58 392.811 162.64 392.811 161.52ZM397.464 161.52C397.464 159.213 397.85 157.413 398.624 156.12C399.41 154.813 400.757 154.16 402.664 154.16C404.57 154.16 405.91 154.813 406.684 156.12C407.47 157.413 407.864 159.213 407.864 161.52C407.864 163.853 407.47 165.68 406.684 167C405.91 168.307 404.57 168.96 402.664 168.96C400.757 168.96 399.41 168.307 398.624 167C397.85 165.68 397.464 163.853 397.464 161.52ZM405.624 161.52C405.624 160.44 405.55 159.527 405.404 158.78C405.27 158.033 404.99 157.427 404.564 156.96C404.137 156.48 403.504 156.24 402.664 156.24C401.824 156.24 401.19 156.48 400.764 156.96C400.337 157.427 400.05 158.033 399.904 158.78C399.77 159.527 399.704 160.44 399.704 161.52C399.704 162.64 399.77 163.58 399.904 164.34C400.037 165.1 400.317 165.713 400.744 166.18C401.184 166.647 401.824 166.88 402.664 166.88C403.504 166.88 404.137 166.647 404.564 166.18C405.004 165.713 405.29 165.1 405.424 164.34C405.557 163.58 405.624 162.64 405.624 161.52ZM425.216 155.1V169H422.936V159.48L418.696 169H417.116L412.856 159.48V169H410.576V155.1H413.036L417.916 166L422.776 155.1H425.216ZM429.373 156.52C428.96 156.52 428.613 156.38 428.333 156.1C428.053 155.82 427.913 155.473 427.913 155.06C427.913 154.647 428.053 154.3 428.333 154.02C428.613 153.74 428.96 153.6 429.373 153.6C429.773 153.6 430.113 153.74 430.393 154.02C430.673 154.3 430.813 154.647 430.813 155.06C430.813 155.473 430.673 155.82 430.393 156.1C430.113 156.38 429.773 156.52 429.373 156.52ZM430.493 157.98V169H428.213V157.98H430.493ZM439.046 157.8C439.913 157.8 440.686 157.98 441.366 158.34C442.06 158.7 442.6 159.233 442.986 159.94C443.373 160.647 443.566 161.5 443.566 162.5V169H441.306V162.84C441.306 161.853 441.06 161.1 440.566 160.58C440.073 160.047 439.4 159.78 438.546 159.78C437.693 159.78 437.013 160.047 436.506 160.58C436.013 161.1 435.766 161.853 435.766 162.84V169H433.486V157.98H435.766V159.24C436.14 158.787 436.613 158.433 437.186 158.18C437.773 157.927 438.393 157.8 439.046 157.8ZM450.475 169.18C449.608 169.18 448.828 169.027 448.135 168.72C447.455 168.4 446.915 167.973 446.515 167.44C446.115 166.893 445.901 166.287 445.875 165.62H448.235C448.275 166.087 448.495 166.48 448.895 166.8C449.308 167.107 449.821 167.26 450.435 167.26C451.075 167.26 451.568 167.14 451.915 166.9C452.275 166.647 452.455 166.327 452.455 165.94C452.455 165.527 452.255 165.22 451.855 165.02C451.468 164.82 450.848 164.6 449.995 164.36C449.168 164.133 448.495 163.913 447.975 163.7C447.455 163.487 447.001 163.16 446.615 162.72C446.241 162.28 446.055 161.7 446.055 160.98C446.055 160.393 446.228 159.86 446.575 159.38C446.921 158.887 447.415 158.5 448.055 158.22C448.708 157.94 449.455 157.8 450.295 157.8C451.548 157.8 452.555 158.12 453.315 158.76C454.088 159.387 454.501 160.247 454.555 161.34H452.275C452.235 160.847 452.035 160.453 451.675 160.16C451.315 159.867 450.828 159.72 450.215 159.72C449.615 159.72 449.155 159.833 448.835 160.06C448.515 160.287 448.355 160.587 448.355 160.96C448.355 161.253 448.461 161.5 448.675 161.7C448.888 161.9 449.148 162.06 449.455 162.18C449.761 162.287 450.215 162.427 450.815 162.6C451.615 162.813 452.268 163.033 452.775 163.26C453.295 163.473 453.741 163.793 454.115 164.22C454.488 164.647 454.681 165.213 454.695 165.92C454.695 166.547 454.521 167.107 454.175 167.6C453.828 168.093 453.335 168.48 452.695 168.76C452.068 169.04 451.328 169.18 450.475 169.18Z" fill="white"/>
<path d="M580.2 72.6245C580.2 72.6245 588.56 74.9049 587.66 76.4984C586.201 79.0634 574.383 81.0944 573.449 80.6816C572.515 80.2689 572.098 72.6541 573.417 70.4964C574.215 69.173 577.217 67.7322 579.103 69.9386C579.758 70.6865 580.144 71.6318 580.2 72.6245Z" fill="#FEFEFE" fill-opacity="0.5"/>
<path d="M606.816 51.9429C606.151 51.3992 605.437 50.9192 604.682 50.5093C603.963 50.1284 603.202 49.8331 602.414 49.6295C600.896 49.1919 599.291 49.1537 597.754 49.5186C596.623 49.7881 595.839 50.8172 595.88 51.9782C595.871 52.4696 596.015 52.9516 596.291 53.3577C596.64 53.9216 597.105 54.4042 597.656 54.7732C599.641 56.0385 601.996 56.5923 604.337 56.3437C604.749 56.2969 605.151 56.1929 605.534 56.0348L605.645 55.96L605.798 55.8571L606.112 55.6467C606.332 55.5243 606.542 55.3835 606.738 55.2259C607.523 54.6264 608.159 53.854 608.596 52.9687C609.458 51.0175 609.609 48.8262 609.023 46.7759C608.75 45.6733 608.354 44.6048 607.843 43.5905C607.329 42.5915 606.674 41.6715 605.898 40.8589C604.191 39.1724 602.265 37.722 600.173 36.5462C598.274 35.4186 596.257 34.4007 594.226 33.3015C592.095 32.2259 590.109 30.8823 588.319 29.3033C587.081 28.175 586.133 26.7644 585.557 25.1914C585.421 24.795 585.311 24.39 585.228 23.979C585.131 23.5813 585.065 23.1765 585.031 22.7685C584.92 21.8963 584.965 21.0113 585.165 20.1548C585.598 18.3361 586.883 16.838 588.615 16.1318C590.084 15.5713 591.653 15.3217 593.223 15.3989C595.124 15.4756 594.818 15.9836 593.381 16.7165C592.464 17.1928 591.575 17.7224 590.719 18.3025C590.251 18.6169 589.818 18.9818 589.429 19.3906C589.139 19.7167 588.913 20.0946 588.763 20.5043C588.621 20.9061 588.563 21.3331 588.595 21.7581C588.613 22.0152 588.65 22.2707 588.704 22.5226C588.762 22.8124 588.839 23.098 588.935 23.3773C589.069 23.8758 589.284 24.3487 589.572 24.7769C589.838 25.2387 590.157 25.6682 590.522 26.0567C592.1 27.7132 594.569 29.0736 597.117 30.4011C599.862 31.7345 602.52 33.2406 605.074 34.9102C606.453 35.8242 607.725 36.8903 608.866 38.0884C610.035 39.3726 610.977 40.8464 611.651 42.4467C612.473 44.3144 612.984 46.3041 613.162 48.3371C613.248 49.3983 613.216 50.4658 613.068 51.5202C612.902 52.6002 612.589 53.6526 612.138 54.6483C611.159 56.6633 609.611 58.3482 607.686 59.4956C606.64 60.0866 605.48 60.446 604.283 60.5496C603.22 60.6575 602.147 60.6317 601.09 60.4729C598.764 60.1621 596.555 59.2716 594.664 57.8832C593.61 57.0956 592.764 56.0629 592.199 54.8745C591.93 54.2184 591.767 53.5237 591.716 52.8164C591.671 52.1345 591.741 51.45 591.921 50.7907C592.218 49.4628 592.941 48.2681 593.98 47.3889C594.487 46.9696 595.051 46.6246 595.656 46.3644C595.933 46.225 596.224 46.1141 596.524 46.0335C596.802 45.9319 597.088 45.8546 597.379 45.8025C598.506 45.5669 599.661 45.5023 600.806 45.611C601.911 45.6949 603.003 45.9031 604.061 46.2314C604.72 46.4248 605.363 46.6681 605.984 46.9591C606.581 47.2754 607.179 47.5801 607.731 47.9361C608.856 48.6164 609.915 49.3985 610.897 50.2727C612.869 52.0041 614.533 54.0586 615.815 56.3483C616.828 58.1361 617.467 60.1111 617.694 62.1536C617.878 64.2851 617.446 66.4249 616.451 68.3191C615.443 70.1835 613.935 71.7307 612.098 72.7872C611.217 73.3131 610.282 73.7414 609.309 74.0644C608.352 74.3876 607.367 74.6231 606.367 74.768C603.334 75.1298 600.26 74.9362 597.296 74.1966C594.423 73.6026 591.73 72.7662 589.11 72.3248C588.011 72.1408 586.898 72.0538 585.784 72.0649C584.425 72.078 583.073 72.257 581.758 72.598C581.014 72.783 580.241 72.8182 579.484 72.7017C579.161 72.6857 578.84 72.6449 578.523 72.5796C578.086 72.4394 578.098 71.9465 578.632 71.0727C579.53 69.7875 580.819 68.8263 582.307 68.3322C583.756 67.813 585.282 67.5425 586.821 67.5322C588.26 67.5325 589.697 67.6588 591.114 67.9095C592.494 68.1439 593.832 68.4366 595.126 68.7387L598.856 69.676C601.052 70.2907 603.341 70.5044 605.614 70.3069C607.662 70.1069 609.606 69.31 611.206 68.0151C612.249 67.1046 612.977 65.8878 613.286 64.5388C613.595 63.0902 613.487 61.5839 612.974 60.1947C611.741 56.9284 609.589 54.0893 606.777 52.0198L606.816 51.9429Z" fill="url(#paint1_linear_1_1200)"/>
<path d="M576.042 78.4661C578.289 78.2364 580.511 77.8113 582.684 77.1957C583.069 77.0818 583.448 76.9485 583.82 76.7963L584.089 76.6861L584.152 76.644C584.194 76.6159 584.235 76.5879 584.284 76.5552C584.517 76.5056 584.73 76.3874 584.895 76.2158C584.98 75.9668 584.735 75.8282 584.54 75.6871L584.19 75.4675L584.157 75.4188L584.018 75.3914L583.776 75.2714L583.27 75.0454L581.237 74.1089L580.285 73.6683L579.768 73.4098L579.451 73.2087C579.354 73.1283 579.262 73.0417 579.176 72.9493C579.005 72.7555 578.861 72.5404 578.746 72.3092C578.61 72.1075 578.586 71.9518 578.5 71.7777L578.122 70.8096L577.229 68.4415C576.986 67.6715 576.674 66.9249 576.297 66.2107C576.03 65.8141 576.244 65.6204 576.818 65.7392C577.699 66.0037 578.467 66.5538 579 67.3028C579.135 67.5046 579.266 67.6994 579.402 67.9012L579.708 68.5231L580.279 69.7346C580.455 70.1316 580.628 70.5099 580.804 70.8463L580.953 71.069C580.953 71.069 581.014 71.1594 580.953 71.069L581.058 71.1197L581.293 71.2142L581.857 71.4214L583.074 71.8656C583.484 72.0246 583.908 72.1741 584.318 72.3633L585.799 73.0646C586.574 73.4238 587.294 73.8925 587.935 74.4564C588.486 74.928 588.793 75.6235 588.771 76.3481C588.61 77.0762 588.187 77.7198 587.582 78.1566C586.891 78.7223 586.129 79.1963 585.317 79.5668C583.013 80.4519 580.629 81.113 578.198 81.541C577.464 81.6809 576.715 81.7999 575.948 81.891L575.209 81.9634C574.94 81.9941 574.669 82.0075 574.398 82.0036C573.893 82.0286 573.39 81.9299 572.932 81.716L572.778 81.6375C572.528 81.3635 572.32 81.054 572.161 80.7191L571.978 80.1758C571.931 79.9853 571.902 79.7925 571.862 79.5973C571.79 79.2483 571.738 78.8953 571.708 78.5401C571.681 78.2449 571.671 77.959 571.654 77.6777C571.608 76.5271 571.619 75.3995 571.685 74.2647C571.7 72.4489 571.88 70.6382 572.224 68.855C572.327 68.4524 572.389 68.0477 572.522 67.645C573.078 66.1713 573.663 65.8693 574.671 66.1515C574.91 66.206 575.144 66.2782 575.372 66.3675C576.092 66.749 576.433 67.5935 576.18 68.3686C575.562 71.0779 575.223 73.843 575.167 76.621C575.161 76.9279 575.166 77.2371 575.174 77.5347C575.182 77.8322 575.216 78.1832 575.228 78.3668C575.228 78.3668 575.228 78.3668 575.179 78.3995C575.13 78.4322 575.179 78.3995 575.207 78.4413C575.207 78.4413 575.158 78.474 575.305 78.4362L575.972 78.3617L576.042 78.4661Z" fill="#FEFEFE" fill-opacity="0.5"/>
<path d="M565.861 78.2568C565.919 77.9962 566.203 78.2997 566.647 78.9304C566.836 79.2351 566.984 79.5627 567.09 79.9053C567.094 80.1126 567.078 80.3199 567.04 80.5239C566.715 80.9163 566.362 81.2851 565.984 81.6274C565.749 81.8766 565.461 82.0699 565.141 82.1931C564.523 82.4465 563.903 82.7114 563.274 82.9323C563.128 82.9835 562.971 82.9984 562.818 82.9758C562.3 82.9191 561.776 83.0088 561.305 83.2347C561.236 83.2815 561.136 83.2679 561.076 83.389C560.579 83.7147 560.001 83.8963 559.408 83.9135C558.921 83.7758 558.449 83.7194 557.979 83.591C557.946 83.5422 557.874 83.6611 557.769 83.4894C557.564 83.1833 557.461 83.2418 557.324 83.233C557.118 83.2273 556.916 83.1773 556.731 83.0864C556.604 82.9862 556.497 82.8627 556.416 82.7225C556.339 82.501 556.315 82.2647 556.346 82.0323C556.415 81.8646 556.322 81.6348 556.302 81.4256C556.287 81.3546 556.279 81.2822 556.278 81.2095C556.55 80.7904 556.873 80.4073 557.24 80.0691L557.468 79.9869C557.579 79.9121 557.765 79.858 557.946 79.7969C558.214 79.6995 558.476 79.5876 558.731 79.4615C558.807 79.4101 558.91 79.4725 559.001 79.5024C559.092 79.5323 560.085 78.9963 560.129 78.9868C560.369 78.9673 560.561 78.7876 560.862 79.0097C560.904 79.0723 560.967 79.0302 561.013 79.0091C561.408 78.8842 561.819 78.8123 562.233 78.7955C562.434 78.7477 562.631 78.6832 562.821 78.6027C562.821 78.6027 562.914 78.6209 562.949 78.6278C562.984 78.6346 563.063 78.6622 563.109 78.6411C563.592 78.525 564.058 78.3508 564.498 78.1223C564.596 78.0568 565.231 78.1754 565.328 78.0797C565.426 77.984 565.82 78.3755 565.861 78.2568Z" fill="#FEFEFE" fill-opacity="0.5"/>
<path d="M576.966 87.6482C576.791 87.493 577.149 87.3639 577.799 87.2197C578.11 87.1747 578.425 87.1735 578.736 87.2162C578.91 87.2981 579.074 87.3972 579.228 87.512C579.284 87.5955 579.675 88.5543 579.839 88.8885C579.974 89.1851 580.049 89.5057 580.058 89.8316C580.109 90.4637 580.186 91.0889 580.248 91.7233C580.26 91.8638 580.232 92.0047 580.168 92.1305C579.982 92.5643 579.951 93.0485 580.079 93.5025C580.082 93.6023 580.142 93.6916 580.233 93.7321C580.455 93.8661 580.589 95.0885 580.494 95.233C580.384 95.4192 580.283 95.6113 580.193 95.8084C580.108 95.997 579.997 96.1927 579.9 96.379C579.803 96.5654 579.956 96.4625 579.752 96.5493C579.345 96.681 579.418 96.7737 579.397 96.9086C579.336 97.0846 579.244 97.2485 579.126 97.3932C578.99 97.5103 578.841 97.6107 578.681 97.6924C578.441 97.7899 578.185 97.8421 577.926 97.8463C577.702 97.8379 577.479 97.8743 577.27 97.9533C577.208 97.9953 577.094 97.9911 577.031 98.003C576.474 97.7138 575.98 97.3193 575.574 96.8412L575.508 96.5625C575.468 96.3975 575.407 96.1862 575.364 95.9725C575.286 95.5403 575.21 95.0663 575.203 95.0105C575.196 94.9548 575.265 94.8173 575.337 94.7287C575.409 94.6401 575.168 93.439 575.189 93.3948C575.258 93.1365 575.157 92.8811 575.512 92.6427C575.581 92.5959 575.567 92.5448 575.565 92.496C575.608 92.0569 575.714 91.6261 575.877 91.2162C575.926 91.0054 575.954 90.7904 575.961 90.5742C575.961 90.5742 576.038 90.5228 576.044 90.4577C576.051 90.3925 576.142 90.3922 576.121 90.3156C576.227 89.8165 576.288 89.309 576.304 88.7991C576.29 88.6875 576.663 88.1445 576.627 88.0167C576.592 87.889 577.043 87.7176 576.966 87.6482Z" fill="#FEFEFE" fill-opacity="0.5"/>
</g>
</g>
<defs>
<filter id="filter0_d_1_1200" x="0" y="0" width="650" height="251" filterUnits="userSpaceOnUse" color-interpolation-filters="sRGB">
<feFlood flood-opacity="0" result="BackgroundImageFix"/>
<feColorMatrix in="SourceAlpha" type="matrix" values="0 0 0 0 0 0 0 0 0 0 0 0 0 0 0 0 0 0 127 0" result="hardAlpha"/>
<feMorphology radius="10" operator="erode" in="SourceAlpha" result="effect1_dropShadow_1_1200"/>
<feOffset dy="16"/>
<feGaussianBlur stdDeviation="18"/>
<feComposite in2="hardAlpha" operator="out"/>
<feColorMatrix type="matrix" values="0 0 0 0 0.596078 0 0 0 0 0.286275 0 0 0 0 1 0 0 0 0.25 0"/>
<feBlend mode="normal" in2="BackgroundImageFix" result="effect1_dropShadow_1_1200"/>
<feBlend mode="normal" in="SourceGraphic" in2="effect1_dropShadow_1_1200" result="shape"/>
</filter>
<filter id="filter1_f_1_1200" x="-46" y="-58" width="172" height="172" filterUnits="userSpaceOnUse" color-interpolation-filters="sRGB">
<feFlood flood-opacity="0" result="BackgroundImageFix"/>
<feBlend mode="normal" in="SourceGraphic" in2="BackgroundImageFix" result="shape"/>
<feGaussianBlur stdDeviation="36" result="effect1_foregroundBlur_1_1200"/>
</filter>
<filter id="filter2_f_1_1200" x="108" y="116" width="172" height="172" filterUnits="userSpaceOnUse" color-interpolation-filters="sRGB">
<feFlood flood-opacity="0" result="BackgroundImageFix"/>
<feBlend mode="normal" in="SourceGraphic" in2="BackgroundImageFix" result="shape"/>
<feGaussianBlur stdDeviation="36" result="effect1_foregroundBlur_1_1200"/>
</filter>
<filter id="filter3_f_1_1200" x="496" y="-70" width="156" height="156" filterUnits="userSpaceOnUse" color-interpolation-filters="sRGB">
<feFlood flood-opacity="0" result="BackgroundImageFix"/>
<feBlend mode="normal" in="SourceGraphic" in2="BackgroundImageFix" result="shape"/>
<feGaussianBlur stdDeviation="32" result="effect1_foregroundBlur_1_1200"/>
</filter>
<filter id="filter4_i_1_1200" x="46" y="123" width="159" height="12" filterUnits="userSpaceOnUse" color-interpolation-filters="sRGB">
<feFlood flood-opacity="0" result="BackgroundImageFix"/>
<feBlend mode="normal" in="SourceGraphic" in2="BackgroundImageFix" result="shape"/>
<feColorMatrix in="SourceAlpha" type="matrix" values="0 0 0 0 0 0 0 0 0 0 0 0 0 0 0 0 0 0 127 0" result="hardAlpha"/>
<feOffset dy="2"/>
<feGaussianBlur stdDeviation="1"/>
<feComposite in2="hardAlpha" operator="arithmetic" k2="-1" k3="1"/>
<feColorMatrix type="matrix" values="0 0 0 0 1 0 0 0 0 1 0 0 0 0 1 0 0 0 0.25 0"/>
<feBlend mode="normal" in2="shape" result="effect1_innerShadow_1_1200"/>
</filter>
<linearGradient id="paint0_linear_1_1200" x1="325" y1="10" x2="325" y2="196.078" gradientUnits="userSpaceOnUse">
<stop stop-color="#9849FF"/>
<stop offset="1" stop-color="#841EE3"/>
</linearGradient>
<linearGradient id="paint1_linear_1_1200" x1="596.749" y1="26.9043" x2="578.01" y2="76.2515" gradientUnits="userSpaceOnUse">
<stop stop-color="#FEFEFE" stop-opacity="0"/>
<stop offset="1" stop-color="white" stop-opacity="0.7"/>
</linearGradient>
<clipPath id="clip0_1_1200">
<rect x="26" y="10" width="598" height="199" rx="32" fill="white"/>
</clipPath>
</defs>
</svg>
